<svg width="83" height="89" viewBox="0 0 83 89" fill="none" xmlns="http://www.w3.org/2000/svg">
<path d="M78.3745 22.25H69.1451V25.9525C69.1451 30.0375 65.0167 33.375 59.9156 33.375C54.8362 33.375 50.6862 30.0549 50.6862 25.9525V22.25H32.249V25.9525C32.249 30.0375 28.1206 33.375 23.0195 33.375C17.9401 33.375 13.7901 30.0549 13.7901 25.9525V22.25H4.60391C4.60391 59.3275 0 89 0 89H83C82.9784 89 78.3745 59.3275 78.3745 22.25ZM23.0411 29.6725C25.5917 29.6725 27.6451 28.0211 27.6451 25.9699V18.5475C27.6451 12.3939 33.8268 7.42246 41.4784 7.42246C49.1299 7.42246 55.3117 12.3939 55.3117 18.5475V25.9699C55.3117 28.0211 57.3651 29.6725 59.9156 29.6725C62.4661 29.6725 64.5195 28.0211 64.5195 25.9699V18.5475C64.5411 8.30898 54.2094 0 41.4784 0C28.7474 0 18.4156 8.30898 18.4156 18.5475V25.9699C18.4372 28.0037 20.4906 29.6725 23.0411 29.6725Z" fill="black"/>
</svg>
